# xmcd
# Track frame offsets:
# 150
# 13258
# 26836
# 40130
# 53597
# 61735
# 74547
# 87754
# 101746
# 116264
# 125036
# 136272
# 148654
# 161849
# 175704
# 190058
# 202384
# 214755
# 226980
# 241132
#
# Disc length: 3402 seconds
# Revision: 0
# Processed by: cddbd v1.5.2PL0 Copyright (c) Steve Scherf et al.
# Submitted via: VisiTrax 2.11.2.271 - For more info visit www.synapsa.com
#
DISCID=200d4814
DTITLE=Various Artist - The Blues Collection - Coming Home
DYEAR=1900
DGENRE=
TTITLE0=Billie Holliday - Summertime
TTITLE1=Elmore James - I Believe
TTITLE2=John Lee Hooker - Hoogie Boogie
TTITLE3=Jimmy Witherspoon - "Aint Nobody's Business If I Do
TTITLE4=Billie Holliday - I Only Have Eyes For You
TTITLE5=Jimmy Reed - Go On To School
TTITLE6=Elmore James - Dust My Broom
TTITLE7=Dinah Washington - My Lovin' Papa
TTITLE8=Ella Fitzgerald with The Ink Spots - Into Each Life Some Rain Must Fal
TTITLE8=l
TTITLE9=Mississippi John Hurt - Coffee Blues
TTITLE10=Elmore James - Coming Home
TTITLE11=Jimmy Reed - Honest I Do
TTITLE12=Ella Fitzgerald - Pick Up Your Sins And Go To The Devil
TTITLE13=Dinah Washington - No Voot No Boot
TTITLE14=Billie Holliday - More Than You Know
TTITLE15=Lonnie Johnson - Nothing But Trouble
TTITLE16=Sonny terry - Whoopin' The Blues
TTITLE17=Dinah Washington - A Slick Chick (On The Mellow Side)
TTITLE18=Billie Holliday - Carelessly
TTITLE19=Ella Fitzgerald - Takin' A Chance On Love
EXTD=
EXTT0=
EXTT1=
EXTT2=
EXTT3=
EXTT4=
EXTT5=
EXTT6=
EXTT7=
EXTT8=
EXTT9=
EXTT10=
EXTT11=
EXTT12=
EXTT13=
EXTT14=
EXTT15=
EXTT16=
EXTT17=
EXTT18=
EXTT19=
PLAYORDER=
